<?xml version="1.0" encoding="UTF-8"?>
<svg id="Calque_2" style="fill:#FFF4DF;" data-name="Calque 2" xmlns="http://www.w3.org/2000/svg" viewBox="0 0 152.66 152.66">
  <g id="Calque_3" data-name="Calque 3">
    <path d="m76.84,152.66L0,76.86,75.82,0l76.84,76.84-75.82,75.82ZM5.66,76.82l71.16,70.2,70.18-70.18L75.84,5.68,5.66,76.82Z"/>
    <polygon points="74.86 104.63 73.83 2.86 77.83 2.82 78.8 99.05 149.18 74.95 150.48 78.73 74.86 104.63"/>
    <polygon points="78.83 149.84 74.83 149.84 74.83 104.25 2.17 78.72 3.49 74.95 78.83 101.42 78.83 149.84"/>
    <path d="m95.5,41.81c3.35,1.15,5.73,3.08,7.15,5.8,1.09,2.1,1.42,3.9,1,5.39-.43,1.5-1.54,2.4-3.33,2.73-1.78.32-3.56-.07-5.34-1.17s-3.21-2.7-4.3-4.8c-1.42-2.72-1.28-5.11.4-7.16-2.89-1.25-4.97-3.1-6.24-5.54-.94-1.8-1.22-3.37-.86-4.7.37-1.33,1.34-2.14,2.92-2.42,1.58-.28,3.16.07,4.73,1.05,1.57.98,2.82,2.38,3.76,4.18,1.27,2.44,1.31,4.65.11,6.64Zm-2.91-.93c1.3-1.52,1.43-3.28.39-5.28-.59-1.14-1.32-1.99-2.16-2.55-.84-.55-1.72-.75-2.62-.59-.89.16-1.42.61-1.6,1.35-.17.74.04,1.68.64,2.82,1.04,2,2.82,3.41,5.34,4.25Zm7.64,7.17c-.56-1.08-1.33-1.95-2.3-2.63s-2.28-1.28-3.92-1.82c-.84.98-1.35,1.91-1.51,2.79-.17.88.03,1.86.59,2.93.73,1.41,1.63,2.45,2.7,3.14,1.07.69,2.14.94,3.22.74s1.73-.75,1.97-1.67,0-2.09-.74-3.5Z"/>
  </g>
</svg>