<?xml version="1.0" encoding="UTF-8"?>
<svg id="Calque_2" style="fill:#FFF4DF;" data-name="Calque 2" xmlns="http://www.w3.org/2000/svg" viewBox="0 0 150.62 153.18">
  <g id="Calque_4" data-name="Calque 4">
    <path d="m74.8,153.18L0,85.17,75.82,0l74.8,85.19-75.82,67.99ZM5.62,84.87l69.2,62.92,70.18-62.94L75.8,6.04,5.62,84.87Z"/>
    <path d="m75.27,98.35l-29.89-22.66L75.89.51l28.71,76.99-29.33,20.86Zm-25.03-24l25.11,19.04,24.43-17.38L75.73,11.53l-25.49,62.82Z"/>
    <rect x="2.26" y="78.02" width="46.1" height="4" transform="translate(-16.77 7.4) rotate(-12.54)"/>
    <rect x="123" y="57.71" width="4" height="46.36" transform="translate(23.12 189.46) rotate(-79.73)"/>
    <rect x="47.75" y="121.18" width="54.62" height="4" transform="translate(-48.81 197.09) rotate(-89.47)"/>
    <g>
      <path d="m69.54,83.44h-2.82v-17.34c-1.14.76-2.91,1.14-5.3,1.14v-2.23c3.45,0,5.43-1.33,5.94-4h2.18v22.42Z"/>
      <path d="m83.64,61.02c4.78,0,7.17,3.81,7.17,11.43s-2.39,11.37-7.17,11.37-7.16-3.79-7.16-11.37,2.39-11.43,7.16-11.43Zm0,20.57c1.39,0,2.45-.67,3.17-2.01s1.08-3.72,1.08-7.13-.36-5.81-1.08-7.16-1.78-2.04-3.17-2.04-2.43.68-3.15,2.04-1.08,3.75-1.08,7.16.36,5.78,1.08,7.13,1.77,2.01,3.15,2.01Z"/>
    </g>
  </g>
</svg>