<?xml version="1.0" encoding="UTF-8"?>
<svg id="Calque_2" style="fill:#FFF4DF;" data-name="Calque 2" xmlns="http://www.w3.org/2000/svg" viewBox="0 0 133.23 153.07">
  <g id="Calque_6" data-name="Calque 6">
    <path d="m67.01,153.07L0,114.93V39.62L67.21,0l66.01,38.16-.23,76.76-65.99,38.15ZM4,112.6l62.99,35.86,62.01-35.85.21-72.14L67.23,4.63,4,41.91v70.69Z"/>
    <path d="m66.6,119.43L28.34,59.77h77.16l-38.9,59.66Zm-30.94-55.66l30.97,48.29,31.49-48.29h-62.46Z"/>
    <path d="m101.22,64.73L67.52,6.8c-.07-.12-.17-.18-.31-.18h0c-.14,0-.24.06-.31.18l-34.27,57.85L.85,42.4l2.29-3.28,28.23,19.76L63.45,4.75c.8-1.35,2.25-2.12,3.77-2.14,1.56,0,2.96.82,3.75,2.17l31.42,54.02,27.61-21.07,2.43,3.18-31.22,23.82Z"/>
    <path d="m65,150.79l-.37-33.16-58.51-3.6c-1.61-.1-3.02-1.01-3.78-2.44-.75-1.43-.71-3.11.13-4.5l27.81-46.35,3.43,2.06L5.91,109.14c-.15.25-.07.46-.02.57.06.11.2.29.48.31l62.22,3.83.41,36.88-4,.04Z"/>
    <path d="m66.73,117.74l-.24-3.99,61.39-3.74c.2-.01.3-.13.35-.23.05-.1.09-.25-.01-.42l-28.12-46.57,3.42-2.07,28.12,46.57c.81,1.34.86,2.96.13,4.34-.73,1.38-2.09,2.26-3.65,2.36l-61.39,3.74Z"/>
    <g>
      <path d="m65.46,84.47h-11.46c0-1.06.33-2.08.98-3.05.65-.97,1.85-2.16,3.59-3.58s2.94-2.55,3.58-3.4c.64-.85.97-1.81.97-2.88,0-.96-.28-1.72-.83-2.27-.55-.55-1.33-.83-2.32-.83-.87,0-1.61.28-2.22.83s-.96,1.38-1.04,2.46h-2.3c.13-1.53.69-2.76,1.68-3.68s2.3-1.38,3.92-1.38c1.72,0,3.05.47,3.99,1.4s1.4,2.1,1.4,3.51c0,1.27-.35,2.4-1.04,3.37-.69.97-2.07,2.33-4.12,4.06-2.06,1.73-3.11,2.85-3.14,3.36h8.36v2.07Z"/>
      <path d="m73.41,66.69c3.76,0,5.64,3.02,5.64,9.06s-1.88,9.01-5.64,9.01-5.63-3-5.63-9.01,1.88-9.06,5.63-9.06Zm0,16.31c1.09,0,1.92-.53,2.49-1.6.57-1.07.85-2.95.85-5.65s-.28-4.6-.85-5.68c-.57-1.08-1.4-1.62-2.49-1.62s-1.91.54-2.48,1.62c-.57,1.08-.85,2.97-.85,5.68s.28,4.59.85,5.65c.57,1.06,1.39,1.6,2.48,1.6Z"/>
    </g>
  </g>
</svg>