<?xml version="1.0" encoding="UTF-8"?>
<svg id="Calque_2"  style="fill:#FFF4DF;" data-name="Calque 2" xmlns="http://www.w3.org/2000/svg" viewBox="0 0 134.02 152.58">
  <g id="Calque_2-2" data-name="Calque 2">
    <path d="m67,152.58L0,114.45V37.11L65.98,0l67.01,36.08,1.03,78.36-67.02,38.15ZM4,112.12l63,35.86,62.98-35.85-.97-73.64L66.02,4.57,4,39.45v72.67Z"/>
    <polygon points="69 150.28 65 150.28 65 75.16 129.96 35.57 132.04 38.99 69 77.41 69 150.28"/>
    <rect x="32.5" y="19.64" width="4" height="75.29" transform="translate(-32.36 58.16) rotate(-59.69)"/>
    <path d="m93.92,96.09c2.14-3.32,4.59-5.68,7.37-7.08,2.72-1.37,5.02-1.58,6.89-.64s2.81,2.87,2.82,5.77c0,2.95-.92,5.92-2.76,8.92-1.85,3-4.31,5.27-7.39,6.82-3.52,1.77-6.25,1.85-8.21.24s-2.94-4.84-2.95-9.69c-.03-11.36,3.79-18.96,11.44-22.81,2.44-1.23,4.5-1.62,6.19-1.17s2.72,1.86,3.09,4.23l-4.3,2.16c-.38-2.88-2.11-3.54-5.2-1.98-1.99,1-3.61,2.82-4.84,5.45-1.23,2.63-1.95,5.89-2.16,9.77Zm-.04,3.11c.07,3.53.72,5.93,1.95,7.22,1.23,1.29,2.87,1.41,4.93.38,1.8-.91,3.24-2.32,4.32-4.25,1.07-1.93,1.61-3.92,1.61-5.98,0-2.09-.56-3.52-1.66-4.31-1.1-.78-2.58-.71-4.43.21-2.29,1.15-4.53,3.4-6.71,6.72Z"/>
  </g>
</svg>