<?xml version="1.0" encoding="UTF-8"?>
<svg id="Calque_2" style="fill:#FFF4DF;" data-name="Calque 2" xmlns="http://www.w3.org/2000/svg" viewBox="0 0 150.62 153.18">
  <g id="Calque_7" data-name="Calque 7">
    <g>
      <path d="m74.8,153.18L0,85.17,75.82,0l74.8,85.19-75.82,68ZM5.62,84.87l69.2,62.92,70.18-62.94L75.8,6.04,5.62,84.87Z"/>
      <path d="m75.27,98.35l-29.89-22.67L75.89.51l28.71,76.99-29.33,20.86Zm-25.03-24l25.11,19.04,24.43-17.38L75.73,11.53l-25.49,62.82Z"/>
      <rect x="2.26" y="78.02" width="46.1" height="4" transform="translate(-16.77 7.4) rotate(-12.54)"/>
      <rect x="123" y="57.71" width="4" height="46.36" transform="translate(23.12 189.46) rotate(-79.73)"/>
      <rect x="47.75" y="121.18" width="54.62" height="4" transform="translate(-48.81 197.09) rotate(-89.47)"/>
      <g>
        <path d="m64.71,80.96h-2.06v-14.62c-.83.64-2.13.96-3.87.96v-1.88c2.52,0,3.97-1.12,4.35-3.37h1.59v18.9Z"/>
        <path d="m75.03,62.06c3.5,0,5.25,3.21,5.25,9.64s-1.75,9.58-5.25,9.58-5.24-3.19-5.24-9.58,1.75-9.64,5.24-9.64Zm0,17.34c1.02,0,1.79-.57,2.32-1.7s.79-3.14.79-6.01-.26-4.9-.79-6.04-1.3-1.72-2.32-1.72-1.78.57-2.3,1.72-.79,3.16-.79,6.04.26,4.88.79,6.01,1.3,1.7,2.3,1.7Z"/>
        <path d="m87.53,62.06c3.5,0,5.25,3.21,5.25,9.64s-1.75,9.58-5.25,9.58-5.24-3.19-5.24-9.58,1.75-9.64,5.24-9.64Zm0,17.34c1.02,0,1.79-.57,2.32-1.7s.79-3.14.79-6.01-.26-4.9-.79-6.04-1.3-1.72-2.32-1.72-1.78.57-2.3,1.72-.79,3.16-.79,6.04.26,4.88.79,6.01,1.3,1.7,2.3,1.7Z"/>
      </g>
    </g>
  </g>
</svg>