<?xml version="1.0" encoding="UTF-8"?>
<svg id="Calque_2" style="fill:#FFF4DF;" data-name="Calque 2" xmlns="http://www.w3.org/2000/svg" viewBox="0 0 153 154">
  <g id="Calque_5" data-name="Calque 5">
    <path d="m97.53,154h-41.06l-35.93-20.53L0,97.53v-42.08L20.54,20.53,56.12,0h41.42l34.9,20.53.26.43,20.29,33.48v44.08l-19.53,34.94-35.94,20.54Zm-40-4h38.94l34.06-19.46,18.47-33.06v-41.92l-19.45-32.09L96.46,4h-39.26L23.46,23.47,4,56.54v39.92l19.47,34.07,34.07,19.47Z"/>
    <polygon points="36.51 101.56 .45 57.26 3.55 54.74 37.49 96.44 74.5 75.82 74.5 38.03 21.49 23.93 22.51 20.07 78.5 34.95 78.5 78.18 36.51 101.56"/>
    <path d="m55.25,152.96c-.09-.16-.18-.33-20.12-53.26l3.74-1.41c6.74,17.89,19.58,51.97,19.97,52.93l-1.66.67-1.93,1.06Z"/>
    <polygon points="117.1 101.57 75.54 78.75 77.46 75.25 116.05 96.43 149.42 53.77 152.58 56.23 117.1 101.57"/>
    <rect x="75.55" y="27.24" width="56.39" height="4" transform="translate(-4.03 27.63) rotate(-14.88)"/>
    <rect x="78.54" y="123.5" width="56.5" height="4" transform="translate(-47.95 182.16) rotate(-69.72)"/>
    <g>
      <path d="m69.65,131h-3.12v-20.11c-1.26.88-3.22,1.33-5.87,1.33v-2.58c3.82,0,6.02-1.55,6.58-4.64h2.41v26Z"/>
      <path d="m93,131h-16.14c0-1.56.46-3.05,1.38-4.46s2.61-3.17,5.06-5.24c2.45-2.08,4.14-3.73,5.04-4.97.91-1.24,1.36-2.64,1.36-4.21,0-1.41-.39-2.51-1.16-3.32-.77-.81-1.87-1.21-3.27-1.21-1.22,0-2.26.41-3.12,1.22s-1.35,2.01-1.46,3.59h-3.24c.18-2.24.97-4.04,2.37-5.38,1.4-1.34,3.24-2.01,5.53-2.01,2.43,0,4.3.68,5.62,2.05,1.32,1.37,1.98,3.08,1.98,5.14,0,1.86-.49,3.5-1.46,4.93s-2.91,3.4-5.81,5.94-4.37,4.17-4.43,4.92h11.77v3.03Z"/>
    </g>
  </g>
</svg>